# xmcd CD database file
#
# Track frame offsets:
#	150
#	9264
#	18197
#	26731
#	38522
#	44557
#	54030
#	69805
#	81127
#	94429
#	102881
#
# Disc length: 1518 seconds
#
# Revision: 1
# Processed by: cddbd v1.5.1PL2 Copyright (c) Steve Scherf et al.
# Submitted via: CDex 1.70beta2
#
DISCID=7505ec0b
DTITLE=Mary Elizabeth Morrow - Reflections
DYEAR=1999
DGENRE=Jazz
TTITLE0=The Bitter-Sweet of It
TTITLE1=Each Sweet Beat of Your Heart
TTITLE2=Remembering Ellington
TTITLE3=It Oh, So Luscious
TTITLE4=My Ship Came In
TTITLE5=All Your Purple Dreams
TTITLE6=She Writes A Lovely Song
TTITLE7=Let's Turn Back the Clock
TTITLE8=Things I Never Knew
TTITLE9=Who Would Care?
TTITLE10=Sweet Baby-Love
EXTD=YEAR: 1999
EXTT0=
EXTT1=
EXTT2=
EXTT3=
EXTT4=
EXTT5=
EXTT6=
EXTT7=
EXTT8=
EXTT9=
EXTT10=
PLAYORDER=
